<svg xmlns="http://www.w3.org/2000/svg" xmlns:xlink="http://www.w3.org/1999/xlink" width="1024" height="1024" version="1.1" style="shape-rendering:geometricPrecision;text-rendering:geometricPrecision;image-rendering:optimizeQuality;fill-rule:evenodd;clip-rule:evenodd"><g><path style="opacity:1" fill="#fefffe" d="M -0.5,-0.5 C 340.833,-0.5 682.167,-0.5 1023.5,-0.5C 1023.5,340.833 1023.5,682.167 1023.5,1023.5C 682.167,1023.5 340.833,1023.5 -0.5,1023.5C -0.5,682.167 -0.5,340.833 -0.5,-0.5 Z"/></g><g><path style="opacity:1" fill="#1a2a41" d="M 486.5,215.5 C 593.201,215.255 675.034,260.588 732,351.5C 771.962,422.486 780.628,497.152 758,575.5C 737.439,636.434 700.273,683.268 646.5,716C 561.766,765.083 474.766,769.417 385.5,729C 309.685,690.507 261.185,630.007 240,547.5C 224.845,459.115 245.178,380.115 301,310.5C 349.831,253.833 411.664,222.166 486.5,215.5 Z"/></g><g><path style="opacity:1" fill="#fefefe" d="M 485.5,219.5 C 582.835,219.001 659.835,257.335 716.5,334.5C 663.17,335.667 609.836,335.833 556.5,335C 549.314,328.407 540.981,323.907 531.5,321.5C 520.233,281.926 493.899,260.593 452.5,257.5C 412.659,260.325 384.826,279.991 369,316.5C 363.7,331.551 362.366,346.884 365,362.5C 355.433,367.903 347.266,374.903 340.5,383.5C 314.153,379.753 293.986,389.42 280,412.5C 274.02,423.732 271.353,435.732 272,448.5C 268.211,453.834 266.544,459.5 267,465.5C 271.513,458.648 277.513,453.648 285,450.5C 283.063,425.152 293.23,407.318 315.5,397C 322.667,394.655 330,393.989 337.5,395C 341.108,396.323 344.775,396.989 348.5,397C 358.955,376.591 375.789,365.758 399,364.5C 400.835,365.119 403.001,365.286 405.5,365C 396.629,359.545 386.963,357.045 376.5,357.5C 373.567,320.854 388.234,294.02 420.5,277C 454.158,263.79 482.992,270.624 507,297.5C 514.716,307.601 519.716,318.935 522,331.5C 539.241,335.74 551.241,346.073 558,362.5C 559.713,368.116 561.213,373.783 562.5,379.5C 587.82,371.329 607.32,378.662 621,401.5C 630.239,418.428 630.739,435.261 622.5,452C 642,446.389 657.333,452.056 668.5,469C 645.564,477.603 629.564,493.27 620.5,516C 502.832,516.167 385.165,516.667 267.5,517.5C 268.811,521.389 269.478,525.389 269.5,529.5C 300.502,529.333 331.502,529.5 362.5,530C 367.651,530.91 372.318,532.91 376.5,536C 381.306,540.626 385.639,545.626 389.5,551C 393.387,554.111 397.72,556.444 402.5,558C 439.12,559.308 475.787,559.975 512.5,560C 516.098,560.154 519.431,561.154 522.5,563C 527.568,569.08 533.901,573.08 541.5,575C 602.169,575.833 662.836,575.667 723.5,574.5C 730.045,558.985 735.045,542.985 738.5,526.5C 725.667,526.167 712.833,525.833 700,525.5C 685.129,525.385 670.296,525.885 655.5,527C 646.759,530.397 639.759,536.064 634.5,544C 628.417,549.207 621.417,552.541 613.5,554C 544.166,554.216 474.833,553.883 405.5,553C 401.136,551.488 397.47,548.988 394.5,545.5C 465.498,544.667 536.498,544.167 607.5,544C 617.185,541.745 624.351,536.245 629,527.5C 634.074,510.151 643.907,496.317 658.5,486C 690.792,469.78 716.959,476.614 737,506.5C 737.569,500.108 736.236,494.108 733,488.5C 726.066,478.115 716.566,471.282 704.5,468C 696.566,466.402 688.566,465.236 680.5,464.5C 672.006,447.747 658.339,438.747 639.5,437.5C 642.499,405.991 630.166,382.824 602.5,368C 592.455,363.974 582.122,362.64 571.5,364C 569.324,356.139 565.991,348.805 561.5,342C 614.5,341.333 667.5,341.333 720.5,342C 765.49,411.446 777.323,486.28 756,566.5C 735.339,632.151 695.172,681.984 635.5,716C 547.831,763.191 460.164,763.191 372.5,716C 269.412,652.641 226.579,560.807 244,440.5C 265.288,342.83 321.455,274.663 412.5,236C 436.228,227.148 460.562,221.648 485.5,219.5 Z"/></g><g><path style="opacity:1" fill="#1a2a41" d="M 703.5,429.5 C 716.296,429.814 725.13,435.814 730,447.5C 730.667,449.167 730.667,450.833 730,452.5C 721.706,433.255 708.54,428.755 690.5,439C 688.3,441.234 686.467,443.734 685,446.5C 685.901,439.892 689.401,435.059 695.5,432C 698.31,431.218 700.977,430.384 703.5,429.5 Z"/></g><g><path style="opacity:1" fill="#1a2a41" d="M 436.5,440.5 C 462.091,439.625 478.591,451.292 486,475.5C 486.874,478.379 486.54,481.045 485,483.5C 477.018,456.439 459.185,444.939 431.5,449C 414.666,455.169 404.166,467.003 400,484.5C 398.61,469.107 404.443,456.94 417.5,448C 423.604,444.583 429.937,442.083 436.5,440.5 Z"/></g><g><path style="opacity:1" fill="#1a2a41" d="M 529.5,471.5 C 545.256,472.608 553.923,480.608 555.5,495.5C 548.399,477.115 535.732,471.615 517.5,479C 512.581,482.084 508.914,486.251 506.5,491.5C 507.64,483.048 512.473,477.048 521,473.5C 521.333,473.833 521.667,474.167 522,474.5C 524.378,473.033 526.878,472.033 529.5,471.5 Z"/></g><g><path style="opacity:1" fill="#fefffe" d="M 383.5,527.5 C 459.914,526.541 536.414,526.207 613,526.5C 613.75,527.126 614.584,527.626 615.5,528C 612.671,530.827 609.337,532.827 605.5,534C 533.167,534.667 460.833,534.667 388.5,534C 386.461,532.074 384.794,529.907 383.5,527.5 Z"/></g><g><path style="opacity:1" fill="#1a2a41" d="M 272.5,542.5 C 299.218,542.036 325.884,542.536 352.5,544C 355.618,545.059 358.618,546.392 361.5,548C 368.932,556.855 376.598,565.521 384.5,574C 390.176,578.338 396.51,581.338 403.5,583C 508.638,583.727 613.638,584.727 718.5,586C 717.292,588.25 715.959,590.417 714.5,592.5C 664.503,593.333 614.503,593.833 564.5,594C 552.782,598.05 544.616,605.883 540,617.5C 535.847,623.328 530.347,627.162 523.5,629C 454.831,629.547 386.164,629.88 317.5,630C 295.531,604.566 280.531,575.399 272.5,542.5 Z"/></g><g><path style="opacity:1" fill="#1a2a41" d="M 585.5,605.5 C 626.172,605.167 666.839,605.5 707.5,606.5C 698.104,621.551 686.771,635.718 673.5,649C 572.167,649.333 470.833,649.667 369.5,650C 361.358,651.642 355.358,656.142 351.5,663.5C 346.409,660.577 341.742,657.077 337.5,653C 334.462,650.297 331.795,647.297 329.5,644C 330,643.5 330.5,643 331,642.5C 333.736,642.261 336.569,642.595 339.5,643.5C 405.488,642.68 471.488,642.18 537.5,642C 547.243,641.379 555.076,637.212 561,629.5C 565.799,617.866 573.965,609.866 585.5,605.5 Z"/></g><g><path style="opacity:1" fill="#1a2a41" d="M 381.5,661.5 C 473.834,661.744 566.168,662.244 658.5,663C 588.249,720.247 509.915,734.58 423.5,706C 402.422,698.214 382.922,687.714 365,674.5C 364.333,673.5 364.333,672.5 365,671.5C 369.145,665.688 374.645,662.354 381.5,661.5 Z"/></g></svg>